<?xml version="1.0" encoding="UTF-8" standalone="no"?>
<!DOCTYPE svg PUBLIC "-//W3C//DTD SVG 1.1//EN"
 "http://www.w3.org/Graphics/SVG/1.1/DTD/svg11.dtd">
<!-- Generated by graphviz version 8.0.5 (0)
 -->
<!-- Pages: 1 -->
<svg width="653pt" height="548pt"
 viewBox="0.00 0.00 652.85 548.00" xmlns="http://www.w3.org/2000/svg" xmlns:xlink="http://www.w3.org/1999/xlink">
<g id="graph0" class="graph" transform="scale(1 1) rotate(0) translate(4 544)">
<polygon fill="white" stroke="none" points="-4,4 -4,-544 648.85,-544 648.85,4 -4,4"/>
<!-- confini -->
<g id="node1" class="node">
<title>confini</title>
<ellipse fill="#cccccc" stroke="black" cx="135.49" cy="-450" rx="46.75" ry="18"/>
<text text-anchor="middle" x="135.49" y="-444.95" font-family="Times,serif" font-size="14.00">lo/confini</text>
</g>
<!-- chainlib -->
<g id="node7" class="node">
<title>chainlib</title>
<ellipse fill="none" stroke="black" cx="210.49" cy="-378" rx="40.6" ry="18"/>
<text text-anchor="middle" x="210.49" y="-372.95" font-family="Times,serif" font-size="14.00">chainlib</text>
</g>
<!-- confini&#45;&gt;chainlib -->
<g id="edge2" class="edge">
<title>confini&#45;&gt;chainlib</title>
<path fill="none" stroke="black" d="M152.5,-433.12C162.29,-423.99 174.75,-412.36 185.61,-402.22"/>
<polygon fill="black" stroke="black" points="187.61,-405.2 192.53,-395.82 182.84,-400.09 187.61,-405.2"/>
</g>
<!-- hexathon -->
<g id="node2" class="node">
<title>hexathon</title>
<ellipse fill="#cccccc" stroke="black" cx="392.49" cy="-522" rx="54.42" ry="18"/>
<text text-anchor="middle" x="392.49" y="-516.95" font-family="Times,serif" font-size="14.00">lo/hexathon</text>
</g>
<!-- leveldir -->
<g id="node4" class="node">
<title>leveldir</title>
<ellipse fill="#cccccc" stroke="black" cx="287.49" cy="-306" rx="48.79" ry="18"/>
<text text-anchor="middle" x="287.49" y="-300.95" font-family="Times,serif" font-size="14.00">lo/leveldir</text>
</g>
<!-- hexathon&#45;&gt;leveldir -->
<g id="edge8" class="edge">
<title>hexathon&#45;&gt;leveldir</title>
<path fill="none" stroke="black" d="M409.28,-504.42C418.06,-494.68 428.08,-481.62 433.49,-468 451.22,-423.29 468.38,-399.19 440.49,-360 437.22,-355.41 378.06,-335.79 334.29,-321.76"/>
<polygon fill="black" stroke="black" points="335.4,-318.13 324.81,-318.42 333.27,-324.79 335.4,-318.13"/>
</g>
<!-- hexathon&#45;&gt;chainlib -->
<g id="edge3" class="edge">
<title>hexathon&#45;&gt;chainlib</title>
<path fill="none" stroke="black" d="M339.59,-517.28C303.51,-511.9 257.37,-498.95 229.49,-468 214.7,-451.59 210.4,-426.57 209.54,-407.23"/>
<polygon fill="black" stroke="black" points="213.02,-407.28 209.38,-397.33 206.02,-407.38 213.02,-407.28"/>
</g>
<!-- funga -->
<g id="node9" class="node">
<title>funga</title>
<ellipse fill="none" stroke="black" cx="392.49" cy="-450" rx="31.9" ry="18"/>
<text text-anchor="middle" x="392.49" y="-444.95" font-family="Times,serif" font-size="14.00">funga</text>
</g>
<!-- hexathon&#45;&gt;funga -->
<g id="edge6" class="edge">
<title>hexathon&#45;&gt;funga</title>
<path fill="none" stroke="black" d="M392.49,-503.7C392.49,-496.24 392.49,-487.32 392.49,-478.97"/>
<polygon fill="black" stroke="black" points="395.99,-479.1 392.49,-469.1 388.99,-479.1 395.99,-479.1"/>
</g>
<!-- potaahto -->
<g id="node3" class="node">
<title>potaahto</title>
<ellipse fill="#cccccc" stroke="black" cx="290.49" cy="-450" rx="52.38" ry="18"/>
<text text-anchor="middle" x="290.49" y="-444.95" font-family="Times,serif" font-size="14.00">lo/potaahto</text>
</g>
<!-- potaahto&#45;&gt;chainlib -->
<g id="edge4" class="edge">
<title>potaahto&#45;&gt;chainlib</title>
<path fill="none" stroke="black" d="M271.93,-432.76C261.31,-423.47 247.82,-411.67 236.19,-401.49"/>
<polygon fill="black" stroke="black" points="238.95,-398.38 229.12,-394.43 234.34,-403.65 238.95,-398.38"/>
</g>
<!-- eth_cache -->
<g id="node11" class="node">
<title>eth_cache</title>
<ellipse fill="none" stroke="black" cx="284.49" cy="-234" rx="46.23" ry="18"/>
<text text-anchor="middle" x="284.49" y="-228.95" font-family="Times,serif" font-size="14.00">eth&#45;cache</text>
</g>
<!-- leveldir&#45;&gt;eth_cache -->
<g id="edge9" class="edge">
<title>leveldir&#45;&gt;eth_cache</title>
<path fill="none" stroke="black" d="M286.74,-287.7C286.42,-280.24 286.04,-271.32 285.68,-262.97"/>
<polygon fill="black" stroke="black" points="289.14,-262.95 285.22,-253.1 282.15,-263.25 289.14,-262.95"/>
</g>
<!-- shep -->
<g id="node5" class="node">
<title>shep</title>
<ellipse fill="#cccccc" stroke="black" cx="144.49" cy="-234" rx="37.53" ry="18"/>
<text text-anchor="middle" x="144.49" y="-228.95" font-family="Times,serif" font-size="14.00">lo/shep</text>
</g>
<!-- chainsyncer -->
<g id="node12" class="node">
<title>chainsyncer</title>
<ellipse fill="none" stroke="black" cx="277.49" cy="-162" rx="54.93" ry="18"/>
<text text-anchor="middle" x="277.49" y="-156.95" font-family="Times,serif" font-size="14.00">chainsyncer</text>
</g>
<!-- shep&#45;&gt;chainsyncer -->
<g id="edge14" class="edge">
<title>shep&#45;&gt;chainsyncer</title>
<path fill="none" stroke="black" d="M169.19,-220C188.95,-209.6 217,-194.84 239.59,-182.94"/>
<polygon fill="black" stroke="black" points="241.01,-185.63 248.22,-177.87 237.75,-179.43 241.01,-185.63"/>
</g>
<!-- chainqueue -->
<g id="node13" class="node">
<title>chainqueue</title>
<ellipse fill="none" stroke="black" cx="144.49" cy="-162" rx="52.89" ry="18"/>
<text text-anchor="middle" x="144.49" y="-156.95" font-family="Times,serif" font-size="14.00">chainqueue</text>
</g>
<!-- shep&#45;&gt;chainqueue -->
<g id="edge15" class="edge">
<title>shep&#45;&gt;chainqueue</title>
<path fill="none" stroke="black" d="M144.49,-215.7C144.49,-208.24 144.49,-199.32 144.49,-190.97"/>
<polygon fill="black" stroke="black" points="147.99,-191.1 144.49,-181.1 140.99,-191.1 147.99,-191.1"/>
</g>
<!-- aiee -->
<g id="node6" class="node">
<title>aiee</title>
<ellipse fill="#cccccc" stroke="black" cx="35.49" cy="-450" rx="35.49" ry="18"/>
<text text-anchor="middle" x="35.49" y="-444.95" font-family="Times,serif" font-size="14.00">lo/alee</text>
</g>
<!-- aiee&#45;&gt;chainlib -->
<g id="edge1" class="edge">
<title>aiee&#45;&gt;chainlib</title>
<path fill="none" stroke="black" d="M62.83,-438.06C91.8,-426.47 137.83,-408.06 170.79,-394.88"/>
<polygon fill="black" stroke="black" points="172.01,-397.76 180,-390.8 169.41,-391.26 172.01,-397.76"/>
</g>
<!-- chainlib_eth -->
<g id="node8" class="node">
<title>chainlib_eth</title>
<ellipse fill="none" stroke="black" cx="409.49" cy="-306" rx="54.93" ry="18"/>
<text text-anchor="middle" x="409.49" y="-300.95" font-family="Times,serif" font-size="14.00">chainlib&#45;eth</text>
</g>
<!-- chainlib&#45;&gt;chainlib_eth -->
<g id="edge5" class="edge">
<title>chainlib&#45;&gt;chainlib_eth</title>
<path fill="none" stroke="black" d="M241.58,-366.06C274.05,-354.64 325.37,-336.59 362.73,-323.45"/>
<polygon fill="black" stroke="black" points="363.6,-326.5 371.87,-319.88 361.27,-319.9 363.6,-326.5"/>
</g>
<!-- chainlib&#45;&gt;chainsyncer -->
<g id="edge10" class="edge">
<title>chainlib&#45;&gt;chainsyncer</title>
<path fill="none" stroke="black" d="M209.18,-359.64C207.61,-329.1 207.47,-264.43 229.49,-216 234.39,-205.21 242.32,-195.09 250.32,-186.65"/>
<polygon fill="black" stroke="black" points="252.3,-189.63 256.93,-180.11 247.37,-184.66 252.3,-189.63"/>
</g>
<!-- chainlib&#45;&gt;chainqueue -->
<g id="edge11" class="edge">
<title>chainlib&#45;&gt;chainqueue</title>
<path fill="none" stroke="black" d="M189.7,-362.09C162.46,-341.11 115.98,-300.05 97.49,-252 91.74,-237.07 91.81,-230.96 97.49,-216 101.65,-205.02 109.25,-194.86 117.14,-186.43"/>
<polygon fill="black" stroke="black" points="119.07,-189.45 123.69,-179.91 114.13,-184.49 119.07,-189.45"/>
</g>
<!-- chainlib_eth&#45;&gt;eth_cache -->
<g id="edge12" class="edge">
<title>chainlib_eth&#45;&gt;eth_cache</title>
<path fill="none" stroke="black" d="M382.67,-289.98C364.18,-279.63 339.41,-265.76 319.38,-254.54"/>
<polygon fill="black" stroke="black" points="321.41,-251.11 310.98,-249.27 317.99,-257.21 321.41,-251.11"/>
</g>
<!-- chaind_eth -->
<g id="node15" class="node">
<title>chaind_eth</title>
<ellipse fill="#aaffaa" stroke="black" cx="473.49" cy="-18" rx="59.54" ry="18"/>
<text text-anchor="middle" x="473.49" y="-12.95" font-family="Times,serif" font-size="14.00">hi/chaind&#45;eth</text>
</g>
<!-- chainlib_eth&#45;&gt;chaind_eth -->
<g id="edge25" class="edge">
<title>chainlib_eth&#45;&gt;chaind_eth</title>
<path fill="none" stroke="black" d="M461.18,-299.53C518.2,-292.3 604.57,-277.42 624.49,-252 677.03,-184.92 616.19,-134.69 558.49,-72 546.31,-58.77 530.11,-47.59 515.12,-38.95"/>
<polygon fill="black" stroke="black" points="516.95,-35.41 506.5,-33.65 513.57,-41.54 516.95,-35.41"/>
</g>
<!-- eth_monitor -->
<g id="node16" class="node">
<title>eth_monitor</title>
<ellipse fill="#aaffaa" stroke="black" cx="484.49" cy="-90" rx="64.66" ry="18"/>
<text text-anchor="middle" x="484.49" y="-84.95" font-family="Times,serif" font-size="14.00">hi/eth&#45;monitor</text>
</g>
<!-- chainlib_eth&#45;&gt;eth_monitor -->
<g id="edge24" class="edge">
<title>chainlib_eth&#45;&gt;eth_monitor</title>
<path fill="none" stroke="black" d="M459.95,-298.35C511.96,-290.34 587.86,-275.02 605.49,-252 643.54,-202.28 569.16,-143.35 521.02,-112.41"/>
<polygon fill="black" stroke="black" points="523.11,-108.97 512.78,-106.61 519.38,-114.89 523.11,-108.97"/>
</g>
<!-- eth_erc20 -->
<g id="node17" class="node">
<title>eth_erc20</title>
<ellipse fill="#aaffaa" stroke="black" cx="541.49" cy="-234" rx="55.45" ry="18"/>
<text text-anchor="middle" x="541.49" y="-228.95" font-family="Times,serif" font-size="14.00">hi/eth&#45;erc20</text>
</g>
<!-- chainlib_eth&#45;&gt;eth_erc20 -->
<g id="edge20" class="edge">
<title>chainlib_eth&#45;&gt;eth_erc20</title>
<path fill="none" stroke="black" d="M437.48,-290.15C456.82,-279.9 482.76,-266.14 503.9,-254.93"/>
<polygon fill="black" stroke="black" points="505.34,-257.6 512.53,-249.82 502.06,-251.42 505.34,-257.6"/>
</g>
<!-- eth_erc721 -->
<g id="node18" class="node">
<title>eth_erc721</title>
<ellipse fill="#aaffaa" stroke="black" cx="408.49" cy="-234" rx="60.05" ry="18"/>
<text text-anchor="middle" x="408.49" y="-228.95" font-family="Times,serif" font-size="14.00">hi/eth&#45;erc721</text>
</g>
<!-- chainlib_eth&#45;&gt;eth_erc721 -->
<g id="edge21" class="edge">
<title>chainlib_eth&#45;&gt;eth_erc721</title>
<path fill="none" stroke="black" d="M409.24,-287.7C409.13,-280.24 409,-271.32 408.88,-262.97"/>
<polygon fill="black" stroke="black" points="412.37,-263.05 408.73,-253.1 405.37,-263.15 412.37,-263.05"/>
</g>
<!-- funga&#45;&gt;chainlib -->
<g id="edge22" class="edge">
<title>funga&#45;&gt;chainlib</title>
<path fill="none" stroke="black" d="M367.39,-438.44C362.15,-436.28 356.65,-434.04 351.49,-432 317.95,-418.75 279.63,-404.4 251.42,-393.97"/>
<polygon fill="black" stroke="black" points="252.72,-390.36 242.13,-390.18 250.3,-396.92 252.72,-390.36"/>
</g>
<!-- funga_eth -->
<g id="node10" class="node">
<title>funga_eth</title>
<ellipse fill="none" stroke="black" cx="385.49" cy="-378" rx="46.23" ry="18"/>
<text text-anchor="middle" x="385.49" y="-372.95" font-family="Times,serif" font-size="14.00">funga&#45;eth</text>
</g>
<!-- funga&#45;&gt;funga_eth -->
<g id="edge7" class="edge">
<title>funga&#45;&gt;funga_eth</title>
<path fill="none" stroke="black" d="M390.76,-431.7C390.01,-424.24 389.12,-415.32 388.28,-406.97"/>
<polygon fill="black" stroke="black" points="391.67,-406.71 387.2,-397.1 384.71,-407.4 391.67,-406.71"/>
</g>
<!-- funga_eth&#45;&gt;chainlib_eth -->
<g id="edge23" class="edge">
<title>funga_eth&#45;&gt;chainlib_eth</title>
<path fill="none" stroke="black" d="M391.42,-359.7C394.03,-352.07 397.17,-342.92 400.09,-334.4"/>
<polygon fill="black" stroke="black" points="403.69,-335.7 403.62,-325.1 397.07,-333.43 403.69,-335.7"/>
</g>
<!-- eth_cache&#45;&gt;chainsyncer -->
<g id="edge13" class="edge">
<title>eth_cache&#45;&gt;chainsyncer</title>
<path fill="none" stroke="black" d="M282.76,-215.7C282.01,-208.24 281.12,-199.32 280.28,-190.97"/>
<polygon fill="black" stroke="black" points="283.67,-190.71 279.2,-181.1 276.71,-191.4 283.67,-190.71"/>
</g>
<!-- chaind -->
<g id="node14" class="node">
<title>chaind</title>
<ellipse fill="#aaffaa" stroke="black" cx="277.49" cy="-90" rx="45.21" ry="18"/>
<text text-anchor="middle" x="277.49" y="-84.95" font-family="Times,serif" font-size="14.00">hi/chaind</text>
</g>
<!-- chainsyncer&#45;&gt;chaind -->
<g id="edge16" class="edge">
<title>chainsyncer&#45;&gt;chaind</title>
<path fill="none" stroke="black" d="M277.49,-143.7C277.49,-136.24 277.49,-127.32 277.49,-118.97"/>
<polygon fill="black" stroke="black" points="280.99,-119.1 277.49,-109.1 273.99,-119.1 280.99,-119.1"/>
</g>
<!-- chainsyncer&#45;&gt;eth_monitor -->
<g id="edge19" class="edge">
<title>chainsyncer&#45;&gt;eth_monitor</title>
<path fill="none" stroke="black" d="M314.49,-148.49C347.98,-137.16 397.56,-120.39 434.55,-107.89"/>
<polygon fill="black" stroke="black" points="435.27,-111 443.62,-104.48 433.03,-104.37 435.27,-111"/>
</g>
<!-- chainqueue&#45;&gt;chaind -->
<g id="edge17" class="edge">
<title>chainqueue&#45;&gt;chaind</title>
<path fill="none" stroke="black" d="M172.37,-146.33C192.45,-135.76 219.72,-121.4 241.45,-109.97"/>
<polygon fill="black" stroke="black" points="242.78,-112.69 250,-104.94 239.52,-106.5 242.78,-112.69"/>
</g>
<!-- chaind&#45;&gt;chaind_eth -->
<g id="edge18" class="edge">
<title>chaind&#45;&gt;chaind_eth</title>
<path fill="none" stroke="black" d="M310.29,-77.28C341.93,-65.98 390.17,-48.76 426,-35.96"/>
<polygon fill="black" stroke="black" points="426.98,-38.97 435.22,-32.31 424.63,-32.38 426.98,-38.97"/>
</g>
</g>
</svg>
